# xmcd CD database file
#
# Track frame offsets:
#	150
#	19330
#	39306
#	64350
#	85860
#	104190
#	124863
#	142269
#	165440
#	184233
#	203391
#	219567
#
# Disc length: 3156 seconds
#
# Revision: 13
# Processed by: cddbd v1.5.2PL0 Copyright (c) Steve Scherf et al.
# Submitted via: CDex 1.50beta10
#
DISCID=b10c520c
DTITLE=王芷蕾 - 盛開 II
DYEAR=2001
DGENRE=Pop
TTITLE0=明天你是否依然愛我
TTITLE1=流沙
TTITLE2=想哭的時候
TTITLE3=邊界
TTITLE4=這個世界
TTITLE5=悲歡歲月
TTITLE6=不想停留
TTITLE7=翩翩飛起
TTITLE8=根
TTITLE9=每一個晚上
TTITLE10=微風
TTITLE11=最後離開的請關燈
EXTD=2001貌馨 YEAR: 2001
EXTT0=
EXTT1=
EXTT2=
EXTT3=
EXTT4=
EXTT5=
EXTT6=
EXTT7=
EXTT8=
EXTT9=
EXTT10=
EXTT11=
PLAYORDER=
